<svg xmlns="http://www.w3.org/2000/svg" xmlns:xlink="http://www.w3.org/1999/xlink" width="535" zoomAndPan="magnify" viewBox="0 0 401.25 448.499995" height="598" preserveAspectRatio="xMidYMid meet" version="1.0"><defs><clipPath id="fef53989e9"><path d="M 0 0.167969 L 400.5 0.167969 L 400.5 447.832031 L 0 447.832031 Z M 0 0.167969 " clip-rule="nonzero"/></clipPath><clipPath id="ee1626c5bd"><path d="M 81.082031 47.230469 L 400.5 47.230469 L 400.5 447.730469 L 81.082031 447.730469 Z M 81.082031 47.230469 " clip-rule="nonzero"/></clipPath><clipPath id="b941f2d7e4"><path d="M 215 0.167969 L 260 0.167969 L 260 10 L 215 10 Z M 215 0.167969 " clip-rule="nonzero"/></clipPath><clipPath id="5b78902a04"><path d="M 166 0.167969 L 211 0.167969 L 211 6 L 166 6 Z M 166 0.167969 " clip-rule="nonzero"/></clipPath><clipPath id="369b867c6b"><path d="M 37 301 L 66 301 L 66 324.3125 L 37 324.3125 Z M 37 301 " clip-rule="nonzero"/></clipPath><clipPath id="374952467e"><path d="M 396 129 L 400.5 129 L 400.5 139 L 396 139 Z M 396 129 " clip-rule="nonzero"/></clipPath></defs><g clip-path="url(#fef53989e9)"><path fill="#ffffff" d="M 0 0.167969 L 400.5 0.167969 L 400.5 447.832031 L 0 447.832031 Z M 0 0.167969 " fill-opacity="1" fill-rule="nonzero"/></g><g clip-path="url(#ee1626c5bd)"><path fill="#3d1700" d="M 333.957031 294.347656 L 357.417969 294.347656 C 360.230469 303.417969 368.363281 309.988281 378.375 309.988281 C 390.574219 309.988281 400.273438 300.292969 400.273438 288.09375 C 400.273438 275.890625 390.574219 266.195312 378.375 266.195312 C 368.363281 266.195312 360.230469 272.765625 357.417969 281.835938 L 331.453125 281.835938 C 329.890625 281.835938 328.324219 282.460938 327.074219 283.710938 L 289.535156 321.25 C 288.285156 322.5 287.660156 324.066406 287.660156 325.628906 L 287.660156 435.113281 L 275.148438 435.113281 L 275.148438 318.746094 L 320.191406 273.703125 C 321.445312 272.453125 322.070312 270.886719 322.070312 269.324219 L 322.070312 240.230469 C 331.140625 237.417969 337.710938 229.285156 337.710938 219.273438 C 337.710938 207.074219 328.011719 197.378906 315.8125 197.378906 C 303.613281 197.378906 293.917969 207.074219 293.917969 219.273438 C 293.917969 229.285156 300.484375 237.417969 309.558594 240.230469 L 309.558594 266.820312 L 304.863281 271.511719 L 256.691406 223.027344 L 256.691406 202.382812 C 257.003906 202.070312 257.316406 201.757812 257.628906 201.445312 L 296.417969 162.96875 L 313.625 162.96875 C 316.4375 172.039062 324.570312 178.609375 334.582031 178.609375 C 346.78125 178.609375 356.476562 168.910156 356.476562 156.710938 C 356.476562 144.511719 346.78125 134.816406 334.582031 134.816406 C 324.570312 134.816406 316.4375 141.382812 313.625 150.457031 L 293.917969 150.457031 C 292.351562 150.457031 290.789062 151.082031 289.535156 152.332031 L 256.691406 185.175781 L 256.691406 155.773438 C 265.761719 152.957031 272.019531 144.824219 272.019531 134.816406 C 272.019531 122.617188 262.324219 112.917969 250.125 112.917969 C 237.921875 112.917969 228.226562 122.617188 228.226562 134.816406 C 228.226562 144.824219 234.796875 153.269531 244.179688 155.773438 L 244.179688 225.53125 C 244.179688 227.09375 244.804688 228.65625 246.054688 229.910156 L 296.105469 279.957031 L 264.511719 311.867188 C 263.261719 313.117188 262.636719 314.679688 262.636719 316.246094 L 262.636719 435.113281 L 246.996094 435.113281 L 246.996094 269.636719 C 246.996094 268.070312 246.371094 266.507812 245.117188 265.257812 L 218.84375 238.667969 L 218.84375 192.371094 C 219.15625 191.433594 219.15625 190.496094 218.84375 189.871094 L 218.84375 90.082031 C 227.914062 87.582031 234.484375 79.136719 234.484375 69.125 C 234.484375 56.925781 224.785156 47.230469 212.585938 47.230469 C 200.386719 47.230469 190.6875 56.925781 190.6875 69.125 C 190.6875 78.824219 197.257812 87.269531 206.328125 90.082031 L 206.328125 175.792969 L 176.613281 146.078125 C 175.050781 144.824219 173.484375 144.199219 171.921875 144.199219 L 152.214844 144.199219 C 149.398438 135.128906 141.265625 128.558594 131.253906 128.558594 C 119.054688 128.558594 109.359375 138.257812 109.359375 150.457031 C 109.359375 162.65625 119.054688 172.351562 131.253906 172.351562 C 141.265625 172.351562 149.398438 165.785156 152.214844 156.710938 L 169.417969 156.710938 L 206.328125 193.625 L 206.328125 241.171875 C 206.328125 242.734375 206.957031 244.296875 208.207031 245.550781 L 234.796875 272.136719 L 234.796875 435.113281 L 219.15625 435.113281 L 219.15625 316.246094 C 219.15625 314.679688 218.53125 313.117188 217.277344 311.867188 L 171.921875 266.820312 L 171.921875 240.230469 C 180.992188 237.417969 187.5625 229.285156 187.5625 219.273438 C 187.5625 207.074219 177.863281 197.378906 165.664062 197.378906 C 153.464844 197.378906 143.769531 207.074219 143.769531 219.273438 C 143.769531 229.285156 150.335938 237.417969 159.410156 240.230469 L 159.410156 269.324219 C 159.410156 270.886719 160.035156 272.453125 161.285156 273.703125 L 206.328125 318.746094 L 206.328125 435.113281 L 193.816406 435.113281 L 193.816406 325.628906 C 193.816406 324.066406 193.191406 322.5 191.941406 321.25 L 154.402344 283.710938 C 153.152344 282.460938 151.589844 281.835938 150.023438 281.835938 L 124.0625 281.835938 C 121.246094 272.765625 113.113281 266.195312 103.101562 266.195312 C 90.902344 266.195312 81.207031 275.890625 81.207031 288.09375 C 81.207031 300.292969 90.902344 309.988281 103.101562 309.988281 C 113.113281 309.988281 121.246094 303.417969 124.0625 294.347656 L 147.523438 294.347656 L 181.304688 328.132812 L 181.304688 435.113281 L 118.742188 435.113281 C 115.300781 435.113281 112.488281 437.925781 112.488281 441.367188 C 112.488281 444.808594 115.300781 447.625 118.742188 447.625 L 362.734375 447.625 C 366.175781 447.625 368.992188 444.808594 368.992188 441.367188 C 368.992188 437.925781 366.175781 435.113281 362.734375 435.113281 L 300.171875 435.113281 L 300.171875 328.132812 Z M 333.957031 294.347656 " fill-opacity="1" fill-rule="nonzero"/></g><path fill="#17320b" d="M 117.742188 21.542969 C 118.089844 20.410156 118.609375 19.691406 119.285156 19.375 L 128.40625 15.402344 C 136.96875 12.308594 148.503906 8.472656 157.269531 6.007812 L 161.574219 5.015625 C 160.851562 5.300781 160.300781 6.023438 159.941406 7.199219 C 153.367188 9.480469 144.625 12.605469 138.222656 15.316406 C 132.035156 17.027344 123.789062 19.382812 117.742188 21.542969 " fill-opacity="1" fill-rule="nonzero"/><path fill="#17320b" d="M 75.027344 48.152344 C 75.289062 47.308594 75.644531 46.699219 76.101562 46.332031 L 76.257812 46.207031 C 93.496094 33.339844 93.824219 33.089844 103.519531 27.53125 L 113.082031 22.382812 C 112.429688 22.710938 111.933594 23.421875 111.597656 24.515625 C 105.667969 28.296875 97.789062 33.40625 92.117188 37.5625 C 86.90625 40.601562 79.988281 44.722656 75.027344 48.152344 " fill-opacity="1" fill-rule="nonzero"/><path fill="#17320b" d="M 392.769531 119.328125 L 392.949219 119.449219 L 396.941406 129.074219 L 392.769531 119.328125 " fill-opacity="1" fill-rule="nonzero"/><path fill="#17320b" d="M 379.789062 96.707031 C 379.855469 96.492188 379.957031 96.363281 380.085938 96.3125 C 383.480469 102.046875 387.953125 109.730469 391.003906 115.65625 L 396.941406 129.074219 L 390.769531 115.972656 C 387.570312 110.136719 383.257812 102.382812 379.789062 96.707031 " fill-opacity="1" fill-rule="nonzero"/><path fill="#17320b" d="M 347.9375 58.675781 C 348.085938 58.1875 348.3125 57.886719 348.613281 57.773438 C 353.226562 62.363281 359.335938 68.527344 363.675781 73.378906 C 367.582031 78.507812 372.757812 85.382812 376.410156 90.703125 C 376.257812 90.761719 376.136719 90.914062 376.058594 91.164062 C 372.148438 86.15625 366.871094 79.511719 362.648438 74.761719 C 358.308594 69.867188 352.488281 63.367188 347.9375 58.675781 " fill-opacity="1" fill-rule="nonzero"/><path fill="#17320b" d="M 308.679688 29.75 C 308.902344 29.023438 309.242188 28.570312 309.695312 28.394531 C 315.257812 31.738281 322.648438 36.246094 328.007812 39.90625 C 332.828125 43.84375 339.222656 49.144531 343.832031 53.324219 C 343.511719 53.453125 343.265625 53.773438 343.105469 54.292969 C 338.140625 50.566406 331.472656 45.640625 326.269531 42.246094 C 321.050781 38.410156 314.070312 33.335938 308.679688 29.75 " fill-opacity="1" fill-rule="nonzero"/><path fill="#17320b" d="M 264.019531 10.753906 C 264.304688 9.820312 264.734375 9.25 265.3125 9.023438 C 271.554688 11.007812 279.871094 13.722656 285.984375 16.078125 C 291.464844 18.710938 298.753906 22.285156 304.074219 25.230469 C 303.605469 25.414062 303.253906 25.878906 303.019531 26.636719 C 297.253906 24.28125 289.539062 21.199219 283.632812 19.234375 C 277.792969 16.585938 269.984375 13.09375 264.019531 10.753906 " fill-opacity="1" fill-rule="nonzero"/><g clip-path="url(#b941f2d7e4)"><path fill="#17320b" d="M 215.960938 2.507812 C 216.292969 1.425781 216.796875 0.761719 217.464844 0.503906 C 223.933594 1.015625 232.570312 1.738281 239 2.640625 L 239.886719 2.785156 C 245.683594 4 253.410156 5.671875 259.117188 7.253906 C 258.53125 7.480469 258.089844 8.066406 257.792969 9.023438 C 251.496094 8.125 243.085938 7 236.738281 6.535156 C 230.53125 5.203125 222.238281 3.472656 215.960938 2.507812 " fill-opacity="1" fill-rule="nonzero"/></g><g clip-path="url(#5b78902a04)"><path fill="#17320b" d="M 166.5 5.84375 C 166.863281 4.671875 167.410156 3.953125 168.128906 3.671875 L 176.65625 2.203125 C 181.613281 1.679688 188.214844 0.789062 193.191406 0.460938 L 199.289062 0.164062 L 210.957031 0.230469 C 210.28125 0.496094 209.769531 1.167969 209.433594 2.265625 C 202.871094 2.917969 194.109375 3.863281 187.601562 4.960938 C 181.269531 5.074219 172.816406 5.300781 166.5 5.84375 " fill-opacity="1" fill-rule="nonzero"/></g><path fill="#17320b" d="M 41.121094 83.195312 C 41.277344 82.683594 41.480469 82.265625 41.714844 81.945312 C 45.011719 77.921875 49.28125 72.453125 52.742188 68.570312 C 58.097656 63.050781 65.324219 55.773438 71.011719 50.605469 C 70.589844 50.972656 70.25 51.558594 70.003906 52.363281 C 65.191406 57.261719 58.824219 63.851562 54.316406 69.035156 C 50.246094 73.179688 44.871094 78.761719 41.121094 83.195312 " fill-opacity="1" fill-rule="nonzero"/><path fill="#17320b" d="M 392.582031 119.980469 C 392.5625 119.835938 392.558594 119.714844 392.5625 119.617188 L 396.941406 129.074219 L 392.582031 119.980469 " fill-opacity="1" fill-rule="nonzero"/><path fill="#17320b" d="M 365.257812 80.15625 C 365.164062 79.328125 365.128906 78.640625 365.152344 78.085938 C 369.1875 82.953125 374.523438 89.496094 378.238281 94.609375 C 381.703125 100.265625 386.28125 107.832031 389.480469 113.640625 C 389.476562 113.800781 389.484375 114 389.511719 114.238281 C 386.292969 109.082031 381.945312 102.234375 378.378906 97.3125 C 374.519531 92.109375 367.761719 86.132812 365.257812 80.15625 " fill-opacity="1" fill-rule="nonzero"/><path fill="#17320b" d="M 329.511719 48.765625 C 329.347656 47.316406 329.285156 46.117188 329.328125 45.152344 C 334.378906 48.675781 341.074219 53.433594 345.878906 57.28125 C 350.4375 61.988281 356.488281 68.300781 360.835938 73.203125 C 360.8125 73.8125 360.847656 74.574219 360.953125 75.488281 C 356.621094 71.695312 350.792969 66.679688 346.183594 63.226562 C 341.242188 58.820312 332.667969 54.582031 329.511719 48.765625 " fill-opacity="1" fill-rule="nonzero"/><path fill="#17320b" d="M 287.339844 26.546875 C 287.113281 24.574219 287.035156 22.929688 287.089844 21.613281 C 292.882812 23.710938 300.589844 26.582031 306.226562 29.070312 C 311.632812 32.703125 318.8125 37.59375 324.046875 41.46875 C 324.003906 42.484375 324.066406 43.75 324.238281 45.269531 C 319.035156 42.90625 312.054688 39.808594 306.679688 37.863281 C 300.925781 34.390625 293.230469 29.789062 287.339844 26.546875 " fill-opacity="1" fill-rule="nonzero"/><path fill="#17320b" d="M 240.75 14.257812 C 240.480469 11.863281 240.382812 9.871094 240.449219 8.273438 C 246.714844 8.882812 255.078125 9.761719 261.289062 10.800781 C 267.28125 13.226562 275.25 16.515625 281.109375 19.238281 C 281.054688 20.597656 281.136719 22.292969 281.367188 24.328125 C 275.539062 23.453125 267.746094 22.359375 261.867188 21.9375 C 255.570312 19.535156 247.148438 16.375 240.75 14.257812 " fill-opacity="1" fill-rule="nonzero"/><path fill="#17320b" d="M 191.746094 12.640625 C 191.441406 9.957031 191.328125 7.722656 191.40625 5.933594 C 197.886719 4.984375 206.546875 3.785156 213.078125 3.285156 C 219.386719 4.367188 227.796875 5.871094 234.035156 7.3125 C 233.96875 8.945312 234.066406 10.972656 234.34375 13.414062 C 228.144531 14.078125 219.875 15.046875 213.742188 16.167969 C 207.164062 14.988281 198.375 13.46875 191.746094 12.640625 " fill-opacity="1" fill-rule="nonzero"/><path fill="#17320b" d="M 142.320312 22.445312 C 142 19.621094 141.882812 17.273438 141.960938 15.390625 C 148.390625 12.828125 156.996094 9.472656 163.582031 7.347656 C 169.945312 6.945312 178.441406 6.472656 184.820312 6.492188 C 184.742188 8.300781 184.859375 10.558594 185.164062 13.269531 C 178.851562 15.515625 170.449219 18.59375 164.300781 21.261719 C 157.699219 21.46875 148.894531 21.808594 142.320312 22.445312 " fill-opacity="1" fill-rule="nonzero"/><path fill="#17320b" d="M 95.710938 43.753906 C 95.394531 40.960938 95.277344 38.640625 95.359375 36.773438 C 101.148438 32.726562 108.925781 27.386719 114.972656 23.726562 C 121.078125 21.722656 129.246094 19.125 135.480469 17.574219 C 135.398438 19.460938 135.515625 21.816406 135.835938 24.640625 C 129.710938 28.476562 121.574219 33.65625 115.703125 37.863281 C 109.664062 39.484375 101.621094 41.707031 95.710938 43.753906 " fill-opacity="1" fill-rule="nonzero"/><path fill="#17320b" d="M 57.199219 73.996094 C 56.90625 71.402344 56.800781 69.238281 56.871094 67.507812 C 61.523438 62.394531 67.777344 55.621094 72.722656 50.800781 C 77.746094 47.53125 84.492188 43.234375 89.75 40.363281 C 89.671875 42.214844 89.785156 44.523438 90.097656 47.296875 C 84.996094 52.300781 78.234375 59.023438 73.421875 64.304688 C 68.472656 67.074219 61.90625 70.835938 57.199219 73.996094 " fill-opacity="1" fill-rule="nonzero"/><path fill="#17320b" d="M 27.90625 111.183594 C 27.648438 108.921875 27.554688 107.042969 27.617188 105.535156 C 31.019531 99.652344 35.613281 91.832031 39.34375 86.148438 C 43.160156 81.855469 48.308594 76.167969 52.441406 72.179688 C 52.371094 73.886719 52.476562 76.019531 52.761719 78.578125 C 48.820312 84.414062 43.605469 92.230469 39.96875 98.261719 C 36.234375 102.027344 31.300781 107.109375 27.90625 111.183594 " fill-opacity="1" fill-rule="nonzero"/><path fill="#17320b" d="M 8.644531 153.398438 C 8.441406 151.601562 8.367188 150.105469 8.417969 148.90625 C 10.46875 142.535156 13.253906 134.050781 15.648438 127.796875 C 18.167969 122.703125 21.59375 115.929688 24.476562 111.023438 C 24.414062 112.496094 24.507812 114.332031 24.753906 116.53125 C 22.070312 122.886719 18.542969 131.386719 16.164062 137.859375 C 13.777344 142.453125 10.652344 148.621094 8.644531 153.398438 " fill-opacity="1" fill-rule="nonzero"/><path fill="#17320b" d="M 0.238281 198.753906 C 0.101562 197.519531 0.0507812 196.492188 0.0820312 195.667969 L 0.214844 193.507812 L 1.085938 183.699219 L 2.867188 171.289062 C 3.941406 166.375 5.324219 159.800781 6.667969 154.957031 C 6.621094 156.109375 6.695312 157.546875 6.886719 159.273438 C 5.5625 165.847656 3.847656 174.617188 2.835938 181.242188 C 1.921875 186.476562 0.769531 193.46875 0.238281 198.753906 " fill-opacity="1" fill-rule="nonzero"/><path fill="#17320b" d="M 380.386719 101.925781 C 380.359375 101.816406 380.335938 101.707031 380.308594 101.597656 C 380.160156 100.933594 380.039062 100.332031 379.941406 99.792969 C 383.324219 104.789062 387.773438 111.492188 390.804688 116.707031 L 396.941406 129.074219 L 391.15625 118.402344 C 388.007812 113.40625 382.789062 107.324219 380.386719 101.925781 " fill-opacity="1" fill-rule="nonzero"/><path fill="#17320b" d="M 349.304688 70.664062 C 349.242188 70.410156 349.1875 70.160156 349.128906 69.914062 C 348.785156 68.386719 348.507812 67.003906 348.289062 65.769531 C 352.742188 69.3125 358.636719 74.101562 362.804688 77.980469 C 366.910156 82.96875 372.351562 89.652344 376.242188 94.8125 C 376.351562 95.445312 376.496094 96.152344 376.671875 96.933594 C 376.703125 97.0625 376.734375 97.191406 376.761719 97.324219 C 373.148438 93.632812 368.269531 88.75 364.34375 85.394531 C 359.882812 80.921875 352.460938 76.132812 349.304688 70.664062 " fill-opacity="1" fill-rule="nonzero"/><path fill="#17320b" d="M 310.726562 47.699219 C 310.636719 47.320312 310.550781 46.945312 310.46875 46.574219 C 309.949219 44.289062 309.535156 42.222656 309.207031 40.375 C 314.464844 42.421875 321.457031 45.230469 326.53125 47.695312 C 331.675781 51.882812 338.507812 57.503906 343.484375 61.886719 C 343.71875 63.207031 344.015625 64.6875 344.386719 66.320312 C 344.449219 66.585938 344.507812 66.855469 344.570312 67.125 C 340.011719 64.914062 333.886719 62.027344 329.136719 60.253906 C 323.652344 56.429688 314.558594 53.179688 310.726562 47.699219 " fill-opacity="1" fill-rule="nonzero"/><path fill="#17320b" d="M 266.628906 33.636719 C 266.515625 33.152344 266.40625 32.675781 266.300781 32.203125 C 265.640625 29.285156 265.105469 26.652344 264.691406 24.296875 C 270.496094 24.824219 278.242188 25.601562 283.988281 26.585938 C 289.90625 29.839844 297.777344 34.210938 303.570312 37.6875 C 303.90625 39.609375 304.34375 41.757812 304.878906 44.136719 C 304.96875 44.523438 305.058594 44.914062 305.148438 45.304688 C 299.875 44.613281 292.820312 43.761719 287.503906 43.535156 C 281.273438 40.496094 272.949219 36.480469 266.628906 33.636719 " fill-opacity="1" fill-rule="nonzero"/><path fill="#17320b" d="M 218.992188 29.085938 C 218.859375 28.523438 218.734375 27.972656 218.609375 27.421875 C 217.84375 24.035156 217.222656 20.976562 216.742188 18.242188 C 222.847656 17.222656 231.007812 15.941406 237.171875 15.386719 C 243.597656 17.542969 252.15625 20.464844 258.484375 22.902344 C 258.910156 25.316406 259.457031 28.015625 260.132812 31.003906 C 260.238281 31.488281 260.351562 31.976562 260.46875 32.472656 C 254.726562 33.316406 247.066406 34.511719 241.402344 35.789062 C 234.707031 33.695312 225.761719 30.941406 218.992188 29.085938 " fill-opacity="1" fill-rule="nonzero"/><path fill="#17320b" d="M 169.789062 34.65625 C 169.648438 34.050781 169.511719 33.445312 169.375 32.851562 C 168.546875 29.183594 167.871094 25.863281 167.347656 22.898438 C 173.511719 20.332031 181.761719 16.96875 188.082031 14.828125 C 194.746094 15.726562 203.625 16.984375 210.226562 18.226562 C 210.714844 21.003906 211.34375 24.105469 212.121094 27.542969 C 212.25 28.097656 212.378906 28.660156 212.511719 29.230469 C 206.542969 31.601562 198.605469 34.832031 192.804688 37.582031 C 185.914062 36.597656 176.714844 35.328125 169.789062 34.65625 " fill-opacity="1" fill-rule="nonzero"/><path fill="#17320b" d="M 121.089844 50.910156 C 120.945312 50.289062 120.804688 49.675781 120.667969 49.070312 C 119.824219 45.328125 119.136719 41.949219 118.605469 38.925781 C 124.554688 34.8125 132.535156 29.382812 138.726562 25.644531 C 145.332031 25.113281 154.164062 24.472656 160.789062 24.359375 C 161.316406 27.34375 161.992188 30.679688 162.828125 34.371094 C 162.960938 34.972656 163.101562 35.578125 163.246094 36.191406 C 157.296875 40.058594 149.398438 45.28125 143.664062 49.460938 C 136.886719 49.769531 127.84375 50.238281 121.089844 50.910156 " fill-opacity="1" fill-rule="nonzero"/><path fill="#17320b" d="M 78.238281 76.300781 C 78.101562 75.707031 77.964844 75.121094 77.832031 74.539062 C 77.023438 70.953125 76.367188 67.710938 75.855469 64.8125 C 80.777344 59.589844 87.398438 52.664062 92.609375 47.726562 C 98.519531 45.820312 106.429688 43.347656 112.460938 41.863281 C 112.988281 44.878906 113.675781 48.253906 114.519531 51.988281 C 114.65625 52.589844 114.796875 53.207031 114.9375 53.824219 C 109.609375 58.9375 102.539062 65.796875 97.472656 71.171875 C 91.667969 72.582031 83.9375 74.511719 78.238281 76.300781 " fill-opacity="1" fill-rule="nonzero"/><path fill="#17320b" d="M 44.011719 108.535156 C 43.886719 108 43.761719 107.46875 43.648438 106.945312 C 42.917969 103.71875 42.324219 100.800781 41.867188 98.191406 C 45.636719 92.203125 50.707031 84.238281 54.773438 78.445312 C 59.503906 75.429688 65.867188 71.472656 70.820312 68.851562 C 71.328125 71.722656 71.980469 74.925781 72.78125 78.480469 C 72.910156 79.054688 73.042969 79.636719 73.183594 80.222656 C 68.925781 86.136719 63.28125 94.054688 59.277344 100.144531 C 54.628906 102.53125 48.445312 105.769531 44.011719 108.535156 " fill-opacity="1" fill-rule="nonzero"/><path fill="#17320b" d="M 19.253906 145.847656 C 19.148438 145.398438 19.046875 144.957031 18.949219 144.523438 C 18.339844 141.828125 17.84375 139.394531 17.464844 137.214844 C 19.980469 130.765625 23.390625 122.179688 26.207031 115.851562 C 29.644531 111.914062 34.289062 106.707031 38.054688 103.089844 C 38.507812 105.648438 39.085938 108.511719 39.804688 111.675781 C 39.921875 112.1875 40.039062 112.707031 40.160156 113.234375 C 37.054688 119.605469 32.957031 128.125 30.105469 134.613281 C 26.734375 137.871094 22.285156 142.277344 19.253906 145.847656 " fill-opacity="1" fill-rule="nonzero"/><path fill="#17320b" d="M 4.8125 186.480469 C 4.738281 186.148438 4.660156 185.816406 4.585938 185.488281 C 4.132812 183.480469 3.761719 181.660156 3.480469 180.03125 C 4.648438 173.421875 6.253906 164.613281 7.730469 158.0625 C 9.773438 153.398438 12.558594 147.195312 14.992188 142.71875 C 15.359375 144.832031 15.839844 147.191406 16.429688 149.800781 C 16.523438 150.226562 16.625 150.652344 16.726562 151.085938 C 14.859375 157.597656 12.410156 166.289062 10.808594 172.871094 C 8.867188 176.886719 6.339844 182.289062 4.8125 186.480469 " fill-opacity="1" fill-rule="nonzero"/><path fill="#17320b" d="M 1.539062 228.671875 C 1.492188 228.472656 1.445312 228.277344 1.398438 228.078125 C 1.125 226.867188 0.902344 225.773438 0.730469 224.796875 C 0.445312 218.324219 0.121094 209.683594 0.167969 203.203125 C 0.71875 197.996094 1.503906 191.050781 2.449219 185.898438 C 2.71875 187.445312 3.070312 189.171875 3.503906 191.085938 C 3.574219 191.394531 3.644531 191.707031 3.71875 192.023438 C 3.175781 198.375 2.5 206.84375 2.242188 213.210938 C 1.886719 217.84375 1.492188 224.03125 1.539062 228.671875 " fill-opacity="1" fill-rule="nonzero"/><path fill="#17320b" d="M 393.125 122.3125 C 393.039062 122.027344 392.964844 121.757812 392.898438 121.5 L 396.941406 129.074219 L 393.125 122.3125 " fill-opacity="1" fill-rule="nonzero"/><path fill="#17320b" d="M 368.355469 93.429688 C 367.875 91.796875 367.441406 90.246094 367.054688 88.792969 C 370.777344 92.242188 375.6875 96.914062 379.082031 100.679688 C 382.445312 105.445312 386.898438 111.820312 390.03125 116.734375 C 390.140625 117.152344 390.269531 117.601562 390.40625 118.074219 C 387.632812 114.5625 383.882812 109.910156 380.765625 106.707031 C 377.097656 102.675781 371.117188 98.132812 368.355469 93.429688 " fill-opacity="1" fill-rule="nonzero"/><path fill="#17320b" d="M 334.910156 71.902344 C 334.074219 69.054688 333.316406 66.355469 332.648438 63.816406 C 337.238281 65.710938 343.339844 68.320312 347.730469 70.640625 C 352.34375 74.898438 358.472656 80.605469 362.941406 85.019531 C 363.363281 86.625 363.839844 88.335938 364.371094 90.136719 C 360.570312 88.117188 355.445312 85.476562 351.4375 83.90625 C 346.511719 80.261719 338.484375 76.882812 334.910156 71.902344 " fill-opacity="1" fill-rule="nonzero"/><path fill="#17320b" d="M 294.714844 58.144531 C 293.570312 54.257812 292.535156 50.566406 291.625 47.105469 C 296.839844 47.460938 303.804688 48.011719 308.964844 48.835938 C 314.578125 52.460938 322.039062 57.324219 327.542969 61.109375 C 328.242188 63.78125 329.039062 66.625 329.921875 69.621094 C 325.292969 69.105469 319.101562 68.5 314.449219 68.453125 C 308.550781 65.316406 300.675781 61.152344 294.714844 58.144531 " fill-opacity="1" fill-rule="nonzero"/><path fill="#17320b" d="M 249.691406 52.570312 C 248.304688 47.859375 247.054688 43.382812 245.945312 39.183594 C 251.5625 38.03125 259.074219 36.558594 264.761719 35.84375 C 271.101562 38.683594 279.535156 42.507812 285.789062 45.535156 C 286.730469 49.109375 287.796875 52.914062 288.976562 56.929688 C 283.765625 57.910156 276.824219 59.304688 271.710938 60.703125 C 265.125 58.207031 256.332031 54.910156 249.691406 52.570312 " fill-opacity="1" fill-rule="nonzero"/><path fill="#17320b" d="M 152.863281 67.621094 C 151.226562 62.0625 149.75 56.785156 148.445312 51.835938 C 154.214844 47.769531 161.941406 42.386719 167.917969 38.636719 C 174.871094 39.390625 184.136719 40.445312 191.046875 41.496094 C 192.300781 46.253906 193.71875 51.320312 195.292969 56.660156 C 189.617188 60.476562 182.082031 65.617188 176.601562 69.699219 C 169.488281 68.980469 159.996094 68.0625 152.863281 67.621094 " fill-opacity="1" fill-rule="nonzero"/><path fill="#17320b" d="M 106.140625 88.4375 C 104.523438 82.9375 103.0625 77.71875 101.769531 72.820312 C 106.960938 67.539062 113.929688 60.53125 119.378906 55.511719 C 126.148438 54.964844 135.1875 54.292969 141.976562 54.097656 C 143.285156 59.054688 144.761719 64.34375 146.402344 69.914062 C 140.863281 74.976562 133.511719 81.773438 128.199219 87.070312 C 121.574219 87.382812 112.742188 87.835938 106.140625 88.4375 " fill-opacity="1" fill-rule="nonzero"/><path fill="#17320b" d="M 66.898438 115.5625 C 65.394531 110.449219 64.039062 105.589844 62.839844 101.039062 C 66.976562 95.015625 72.542969 87.007812 76.933594 81.167969 C 82.65625 79.546875 90.308594 77.449219 96.121094 76.191406 C 97.402344 81.058594 98.859375 86.246094 100.464844 91.710938 C 95.859375 97.535156 89.75 105.328125 85.359375 111.320312 C 79.796875 112.472656 72.378906 114.0625 66.898438 115.5625 " fill-opacity="1" fill-rule="nonzero"/><path fill="#17320b" d="M 36.339844 147.332031 C 35.03125 142.878906 33.851562 138.660156 32.808594 134.699219 C 35.816406 128.261719 39.867188 119.699219 43.121094 113.378906 C 47.605469 110.804688 53.636719 107.429688 58.320312 105.226562 C 59.5 109.71875 60.84375 114.503906 62.324219 119.546875 C 58.761719 125.769531 54.039062 134.085938 50.675781 140.417969 C 46.316406 142.363281 40.515625 145.015625 36.339844 147.332031 " fill-opacity="1" fill-rule="nonzero"/><path fill="#17320b" d="M 15.359375 182.175781 C 14.320312 178.632812 13.378906 175.273438 12.546875 172.117188 C 14.328125 165.582031 16.75 156.878906 18.78125 150.417969 C 21.890625 147.027344 26.109375 142.546875 29.535156 139.480469 C 30.558594 143.347656 31.707031 147.46875 32.984375 151.808594 C 30.542969 158.105469 27.304688 166.511719 25.058594 172.878906 C 22.042969 175.550781 18.050781 179.171875 15.359375 182.175781 " fill-opacity="1" fill-rule="nonzero"/><path fill="#17320b" d="M 4.855469 218.53125 C 4.140625 216.097656 3.492188 213.789062 2.925781 211.621094 C 3.382812 205.292969 4.042969 196.855469 4.773438 190.554688 C 6.386719 186.507812 8.613281 181.125 10.640625 177.277344 C 11.4375 180.308594 12.34375 183.539062 13.347656 186.945312 C 12.09375 193.003906 10.457031 201.09375 9.425781 207.195312 C 7.902344 210.53125 5.945312 215.03125 4.855469 218.53125 " fill-opacity="1" fill-rule="nonzero"/><path fill="#17320b" d="M 5.722656 254.84375 C 5.378906 253.675781 5.070312 252.570312 4.796875 251.527344 C 3.828125 245.703125 2.59375 237.914062 1.949219 232.042969 C 1.972656 227.503906 2.054688 221.445312 2.492188 216.929688 C 3.027344 218.957031 3.628906 221.113281 4.300781 223.390625 C 4.324219 228.933594 4.394531 236.332031 4.695312 241.867188 C 4.859375 245.769531 5.164062 250.980469 5.722656 254.84375 " fill-opacity="1" fill-rule="nonzero"/><path fill="#17320b" d="M 7.265625 261.769531 L 6.375 258.449219 L 5.953125 256.761719 C 6.1875 257.644531 6.449219 258.582031 6.742188 259.574219 L 8.367188 265.589844 C 8.03125 264.445312 7.582031 262.921875 7.265625 261.769531 " fill-opacity="1" fill-rule="nonzero"/><path fill="#17320b" d="M 383.382812 112.148438 C 383 111.003906 382.644531 109.902344 382.3125 108.839844 C 385.230469 112.097656 389.054688 116.515625 391.617188 120.054688 L 396.941406 129.074219 L 392.46875 122.699219 C 389.800781 119.484375 385.5 115.75 383.382812 112.148438 " fill-opacity="1" fill-rule="nonzero"/><path fill="#17320b" d="M 356.183594 94.140625 C 355.308594 91.515625 354.492188 88.976562 353.730469 86.542969 C 357.589844 88.210938 362.71875 90.519531 366.359375 92.621094 C 370.210938 96.433594 375.328125 101.527344 379.039062 105.476562 C 379.429688 106.730469 379.847656 108.03125 380.296875 109.378906 C 377.316406 107.667969 373.289062 105.4375 370.089844 104.183594 C 365.941406 101.136719 359.257812 98.265625 356.183594 94.140625 " fill-opacity="1" fill-rule="nonzero"/><path fill="#17320b" d="M 321.023438 82.847656 C 319.71875 78.914062 318.488281 75.113281 317.355469 71.472656 C 321.921875 71.613281 328.027344 71.875 332.550781 72.492188 C 337.609375 75.9375 344.339844 80.550781 349.308594 84.121094 C 350.121094 86.722656 351 89.441406 351.933594 92.25 C 348.019531 92.027344 342.78125 91.820312 338.871094 92.070312 C 333.53125 89.277344 324.960938 87.40625 321.023438 82.847656 " fill-opacity="1" fill-rule="nonzero"/><path fill="#17320b" d="M 279.757812 78.445312 C 278.089844 73.4375 276.53125 68.59375 275.078125 63.945312 C 280.15625 62.632812 286.949219 60.9375 292.113281 60.046875 C 298.113281 63 306.105469 66.953125 312.042969 70.03125 C 313.222656 73.820312 314.5 77.773438 315.859375 81.859375 C 311.25 83.101562 305.121094 84.839844 300.632812 86.464844 C 294.382812 84.03125 286.039062 80.796875 279.757812 78.445312 " fill-opacity="1" fill-rule="nonzero"/><path fill="#17320b" d="M 234.242188 81.132812 C 232.308594 75.3125 230.488281 69.683594 228.808594 64.289062 C 234.195312 61.585938 241.40625 58.027344 246.953125 55.671875 C 253.621094 57.976562 262.511719 61.078125 269.128906 63.53125 C 270.613281 68.292969 272.21875 73.257812 273.925781 78.394531 C 268.851562 81.011719 262.117188 84.5625 257.210938 87.480469 C 250.332031 85.535156 241.152344 82.960938 234.242188 81.132812 " fill-opacity="1" fill-rule="nonzero"/><path fill="#17320b" d="M 186.320312 91.074219 C 184.21875 84.765625 182.253906 78.667969 180.429688 72.816406 C 185.929688 68.804688 193.300781 63.488281 198.992188 59.746094 C 206.046875 61.238281 215.457031 63.253906 222.464844 64.945312 C 224.175781 70.417969 226.015625 76.125 227.980469 82.027344 C 222.65625 85.90625 215.585938 91.113281 210.433594 95.21875 C 203.207031 93.914062 193.570312 92.207031 186.320312 91.074219 " fill-opacity="1" fill-rule="nonzero"/><path fill="#17320b" d="M 137.941406 108.417969 C 135.804688 101.984375 133.796875 95.769531 131.9375 89.808594 C 137.328125 84.589844 144.546875 77.664062 150.140625 72.664062 C 157.292969 73.144531 166.820312 73.832031 173.949219 74.582031 C 175.785156 80.464844 177.765625 86.601562 179.875 92.949219 C 174.492188 97.941406 167.339844 104.628906 162.113281 109.792969 C 154.867188 109.308594 145.199219 108.691406 137.941406 108.417969 " fill-opacity="1" fill-rule="nonzero"/><path fill="#17320b" d="M 58.546875 158.148438 C 56.703125 152.597656 54.972656 147.234375 53.371094 142.09375 C 56.84375 135.8125 61.507812 127.453125 65.179688 121.285156 C 70.640625 119.921875 77.941406 118.167969 83.472656 117.128906 C 85.234375 122.785156 87.140625 128.683594 89.167969 134.785156 C 85.191406 140.847656 79.910156 148.953125 76.089844 155.113281 C 70.808594 155.921875 63.769531 157.035156 58.546875 158.148438 " fill-opacity="1" fill-rule="nonzero"/><path fill="#17320b" d="M 31.386719 187.253906 C 29.847656 182.625 28.398438 178.148438 27.0625 173.855469 C 29.4375 167.539062 32.640625 159.132812 35.203125 152.894531 C 39.382812 150.742188 44.996094 147.941406 49.339844 146.152344 C 50.914062 151.199219 52.609375 156.460938 54.421875 161.902344 C 51.4375 167.949219 47.480469 176.027344 44.636719 182.140625 C 40.617188 183.554688 35.265625 185.488281 31.386719 187.253906 " fill-opacity="1" fill-rule="nonzero"/><path fill="#17320b" d="M 13.875 217.410156 C 12.730469 213.949219 11.648438 210.605469 10.648438 207.402344 C 11.828125 201.355469 13.441406 193.296875 14.832031 187.292969 C 17.554688 184.460938 21.257812 180.734375 24.296875 178.234375 C 25.59375 182.394531 26.992188 186.734375 28.484375 191.222656 C 26.570312 196.953125 24.039062 204.601562 22.273438 210.378906 C 19.65625 212.363281 16.191406 215.078125 13.875 217.410156 " fill-opacity="1" fill-rule="nonzero"/><path fill="#17320b" d="M 6.988281 247.28125 C 6.296875 245.199219 5.648438 243.191406 5.046875 241.261719 C 4.925781 235.773438 4.824219 228.449219 4.964844 222.960938 C 6.101562 219.589844 7.683594 215.097656 9.261719 211.90625 C 10.214844 214.953125 11.238281 218.132812 12.332031 221.417969 C 11.566406 226.554688 10.566406 233.40625 9.996094 238.566406 C 8.933594 241.121094 7.59375 244.582031 6.988281 247.28125 " fill-opacity="1" fill-rule="nonzero"/><path fill="#17320b" d="M 10.484375 272.292969 C 10.074219 271.039062 9.53125 269.367188 9.128906 268.109375 L 8.804688 267.054688 L 6.511719 258.351562 C 5.972656 254.574219 5.292969 249.515625 5.164062 245.703125 C 5.710938 247.449219 6.296875 249.269531 6.925781 251.160156 C 7.390625 255.453125 8.042969 261.1875 8.796875 265.445312 C 9.292969 267.5 9.824219 270.28125 10.484375 272.292969 " fill-opacity="1" fill-rule="nonzero"/><path fill="#17320b" d="M 394.269531 125.75 C 394.136719 125.386719 394.007812 125.027344 393.886719 124.679688 L 396.941406 129.074219 L 394.269531 125.75 " fill-opacity="1" fill-rule="nonzero"/><path fill="#17320b" d="M 374.847656 112.960938 C 374.097656 110.886719 373.382812 108.863281 372.699219 106.890625 C 375.703125 108.242188 379.691406 110.140625 382.453125 111.9375 C 385.265625 114.902344 389 118.863281 391.664062 121.960938 C 391.859375 122.53125 392.066406 123.117188 392.285156 123.714844 C 390.261719 122.394531 387.503906 120.679688 385.246094 119.828125 C 382.144531 117.742188 377.179688 115.882812 374.847656 112.960938 " fill-opacity="1" fill-rule="nonzero"/><path fill="#17320b" d="M 346.230469 105.953125 C 344.929688 102.347656 343.671875 98.808594 342.484375 95.371094 C 346.28125 95.21875 351.367188 95.085938 355.152344 95.410156 C 359.378906 98.257812 365.003906 102.0625 369.167969 104.996094 C 369.921875 107.175781 370.714844 109.414062 371.539062 111.699219 C 368.453125 111.855469 364.328125 112.167969 361.300781 112.773438 C 356.78125 110.722656 350.757812 107.988281 346.230469 105.953125 " fill-opacity="1" fill-rule="nonzero"/><path fill="#17320b" d="M 310.171875 104.644531 C 308.394531 99.71875 306.679688 94.894531 305.058594 90.195312 C 309.480469 88.648438 315.402344 86.628906 319.945312 85.472656 C 325.339844 88.101562 332.53125 91.617188 337.894531 94.316406 C 339.148438 97.9375 340.460938 101.65625 341.835938 105.453125 C 337.945312 107.042969 332.78125 109.238281 329.039062 111.15625 C 323.382812 109.199219 315.835938 106.589844 310.171875 104.644531 " fill-opacity="1" fill-rule="nonzero"/><path fill="#17320b" d="M 222.785156 118.800781 C 220.363281 112.101562 218.039062 105.542969 215.832031 99.15625 C 220.976562 95.117188 227.863281 89.757812 233.179688 85.945312 C 240.109375 87.75 249.34375 90.175781 256.246094 92.082031 C 258.253906 97.890625 260.367188 103.855469 262.566406 109.945312 C 257.699219 113.972656 251.226562 119.382812 246.507812 123.585938 C 239.394531 122.125 229.910156 120.191406 222.785156 118.800781 " fill-opacity="1" fill-rule="nonzero"/><path fill="#17320b" d="M 128 154.1875 C 125.484375 147.222656 123.066406 140.398438 120.765625 133.757812 C 125.582031 127.910156 132.039062 120.136719 137.039062 114.449219 C 144.296875 114.792969 153.976562 115.289062 161.222656 115.832031 C 163.554688 122.5625 166 129.476562 168.554688 136.53125 C 163.4375 142.261719 156.640625 149.914062 151.664062 155.757812 C 144.570312 155.25 135.105469 154.582031 128 154.1875 " fill-opacity="1" fill-rule="nonzero"/><path fill="#17320b" d="M 87.238281 176.726562 C 84.894531 170.246094 82.648438 163.898438 80.507812 157.71875 C 84.445312 151.609375 89.71875 143.476562 93.804688 137.46875 C 100.164062 137.175781 108.640625 136.828125 115.007812 136.757812 C 117.289062 143.359375 119.691406 150.144531 122.199219 157.070312 C 117.832031 163 112.027344 170.925781 107.777344 176.941406 C 101.617188 176.8125 93.402344 176.671875 87.238281 176.726562 " fill-opacity="1" fill-rule="nonzero"/><path fill="#17320b" d="M 54.027344 200.527344 C 51.988281 194.890625 50.035156 189.371094 48.175781 183.996094 C 51.148438 177.933594 55.140625 169.867188 58.25 163.871094 C 63.480469 162.941406 70.464844 161.753906 75.738281 161.101562 C 77.847656 167.191406 80.0625 173.449219 82.375 179.835938 C 78.863281 185.648438 74.199219 193.40625 70.777344 199.269531 C 65.75 199.5625 59.039062 199.988281 54.027344 200.527344 " fill-opacity="1" fill-rule="nonzero"/><path fill="#17320b" d="M 14.535156 247.636719 C 13.417969 244.554688 12.347656 241.53125 11.332031 238.59375 C 12.09375 233.492188 13.148438 226.703125 14.085938 221.632812 C 16.480469 219.523438 19.742188 216.765625 22.402344 215.007812 C 23.828125 219.121094 25.324219 223.347656 26.882812 227.660156 C 25.328125 232.378906 23.261719 238.671875 21.800781 243.417969 C 19.554688 244.5625 16.550781 246.128906 14.535156 247.636719 " fill-opacity="1" fill-rule="nonzero"/><path fill="#17320b" d="M 10.367188 268.8125 C 9.832031 267.332031 9.320312 265.882812 8.832031 264.472656 C 8.324219 260.257812 7.695312 254.632812 7.449219 250.394531 C 8.160156 247.867188 9.179688 244.484375 10.347656 242.132812 C 11.296875 244.878906 12.296875 247.703125 13.339844 250.582031 C 12.882812 254.378906 12.289062 259.449219 12 263.261719 C 11.34375 264.867188 10.554688 267.085938 10.367188 268.8125 " fill-opacity="1" fill-rule="nonzero"/><path fill="#17320b" d="M 11.972656 276.578125 C 11.621094 275.585938 11.15625 274.257812 10.8125 273.265625 L 9.375 267.738281 C 9.789062 268.933594 10.226562 270.164062 10.679688 271.417969 C 11.199219 273.347656 11.753906 275.960938 12.433594 277.839844 L 11.972656 276.578125 " fill-opacity="1" fill-rule="nonzero"/><path fill="#17320b" d="M 388.074219 125.128906 C 387.558594 123.808594 387.066406 122.503906 386.585938 121.214844 C 388.664062 122.144531 391.421875 123.492188 393.238281 124.863281 L 396.941406 129.074219 L 394.425781 127.996094 C 392.515625 127.140625 389.503906 126.648438 388.074219 125.128906 " fill-opacity="1" fill-rule="nonzero"/><path fill="#17320b" d="M 366.953125 123.945312 C 365.78125 120.910156 364.644531 117.910156 363.542969 114.953125 C 366.488281 114.40625 370.445312 113.734375 373.441406 113.652344 C 376.640625 115.5625 380.90625 118.109375 384.078125 120.070312 C 384.640625 121.589844 385.230469 123.128906 385.828125 124.6875 C 383.625 125.34375 380.695312 126.324219 378.632812 127.339844 C 375.121094 126.347656 370.441406 125.003906 366.953125 123.945312 " fill-opacity="1" fill-rule="nonzero"/><path fill="#17320b" d="M 337.152344 127.464844 C 335.402344 122.925781 333.695312 118.433594 332.050781 114.007812 C 335.742188 112.125 340.695312 109.648438 344.539062 108.101562 C 349.121094 110.027344 355.230469 112.597656 359.8125 114.527344 C 360.988281 117.691406 362.210938 120.902344 363.460938 124.148438 C 360.363281 126.199219 356.261719 128.996094 353.332031 131.277344 C 348.472656 130.164062 341.996094 128.65625 337.152344 127.464844 " fill-opacity="1" fill-rule="nonzero"/><path fill="#17320b" d="M 300.324219 135.34375 C 298.089844 129.554688 295.914062 123.824219 293.816406 118.183594 C 298.097656 115.074219 303.835938 110.960938 308.285156 108.097656 C 314 109.949219 321.613281 112.417969 327.324219 114.269531 C 329.035156 118.875 330.808594 123.550781 332.632812 128.269531 C 328.832031 131.539062 323.796875 135.9375 320.152344 139.371094 C 314.199219 138.183594 306.265625 136.585938 300.324219 135.34375 " fill-opacity="1" fill-rule="nonzero"/><path fill="#17320b" d="M 258.125 147.207031 C 255.53125 140.484375 253.003906 133.832031 250.566406 127.28125 C 255.269531 123.089844 261.566406 117.53125 266.421875 113.519531 C 273 115.191406 281.761719 117.417969 288.324219 119.109375 C 290.480469 124.890625 292.707031 130.765625 294.996094 136.691406 C 290.664062 140.992188 284.914062 146.753906 280.707031 151.175781 C 273.933594 149.992188 264.894531 148.410156 258.125 147.207031 " fill-opacity="1" fill-rule="nonzero"/><path fill="#17320b" d="M 164.328125 181.429688 C 161.464844 174.003906 158.675781 166.648438 155.980469 159.410156 C 161.007812 153.609375 167.730469 145.890625 172.871094 140.183594 C 180.316406 141.074219 190.246094 142.273438 197.679688 143.28125 C 200.339844 150.425781 203.09375 157.683594 205.921875 165.015625 C 200.988281 170.734375 194.417969 178.367188 189.539062 184.136719 C 181.980469 183.308594 171.898438 182.210938 164.328125 181.429688 " fill-opacity="1" fill-rule="nonzero"/><path fill="#17320b" d="M 81.316406 221.136719 C 78.839844 214.730469 76.4375 208.386719 74.109375 202.140625 C 77.613281 196.324219 82.304688 188.574219 85.886719 182.808594 C 92.007812 182.855469 100.164062 182.953125 106.285156 183.164062 C 108.839844 190.035156 111.488281 197.015625 114.207031 204.058594 C 110.257812 209.691406 104.992188 217.199219 101.078125 222.851562 C 95.152344 222.296875 87.25 221.574219 81.316406 221.136719 " fill-opacity="1" fill-rule="nonzero"/><path fill="#17320b" d="M 50.386719 239.828125 C 48.324219 234.480469 46.316406 229.183594 44.375 223.96875 C 46.972656 218.59375 50.449219 211.429688 53.109375 206.085938 C 58.078125 205.695312 64.707031 205.222656 69.6875 205.058594 C 71.96875 211.1875 74.332031 217.410156 76.757812 223.695312 C 73.601562 228.800781 69.390625 235.601562 66.242188 240.707031 C 61.488281 240.386719 55.148438 239.976562 50.386719 239.828125 " fill-opacity="1" fill-rule="nonzero"/><path fill="#17320b" d="M 28.074219 256.679688 C 26.527344 252.6875 25.027344 248.730469 23.578125 244.835938 C 25.164062 240.15625 27.296875 233.925781 28.964844 229.273438 C 32.574219 228.429688 37.410156 227.367188 41.074219 226.816406 C 42.957031 231.867188 44.90625 237.003906 46.90625 242.1875 C 44.632812 246.507812 41.601562 252.277344 39.324219 256.597656 C 35.949219 256.550781 31.445312 256.503906 28.074219 256.679688 " fill-opacity="1" fill-rule="nonzero"/><path fill="#17320b" d="M 15.527344 270.914062 C 14.601562 268.507812 13.699219 266.128906 12.824219 263.785156 C 13.277344 260.042969 13.917969 255.0625 14.515625 251.34375 C 16.550781 250.054688 19.328125 248.410156 21.546875 247.484375 C 22.929688 251.183594 24.351562 254.941406 25.816406 258.738281 C 24.523438 262.054688 22.800781 266.484375 21.523438 269.816406 C 19.710938 270.042969 17.273438 270.359375 15.527344 270.914062 " fill-opacity="1" fill-rule="nonzero"/><path fill="#17320b" d="M 13.746094 281.332031 L 13.179688 279.851562 L 12.699219 278.5625 C 12.097656 276.378906 11.25 273.476562 10.851562 271.25 C 11.09375 269.671875 11.488281 267.527344 12.210938 266.105469 C 13.003906 268.226562 13.820312 270.386719 14.660156 272.558594 C 14.421875 274.679688 14.109375 277.511719 14.03125 279.644531 C 13.855469 280.125 13.609375 280.835938 13.746094 281.332031 " fill-opacity="1" fill-rule="nonzero"/><path fill="#17320b" d="M 395.800781 129.710938 C 395.640625 129.324219 395.484375 128.933594 395.328125 128.546875 L 396.941406 129.074219 L 395.800781 129.710938 " fill-opacity="1" fill-rule="nonzero"/><path fill="#17320b" d="M 383.5625 135.515625 C 382.65625 133.300781 381.765625 131.085938 380.890625 128.882812 C 382.847656 127.90625 385.488281 126.613281 387.59375 126.011719 C 389.519531 126.71875 392.082031 127.667969 394.027344 128.3125 C 394.28125 128.949219 394.539062 129.589844 394.800781 130.230469 C 393.628906 131.503906 392.105469 133.25 391.070312 134.636719 C 388.832031 135.003906 385.828125 135.414062 383.5625 135.515625 " fill-opacity="1" fill-rule="nonzero"/><path fill="#17320b" d="M 330.925781 158.347656 C 328.765625 153.074219 326.640625 147.804688 324.5625 142.558594 C 328.144531 139.121094 332.941406 134.554688 336.679688 131.28125 C 341.546875 132.328125 348.035156 133.71875 352.921875 134.667969 C 354.523438 138.710938 356.164062 142.773438 357.828125 146.835938 C 354.835938 150.558594 350.867188 155.542969 347.988281 159.351562 C 342.867188 159.113281 336.035156 158.753906 330.925781 158.347656 " fill-opacity="1" fill-rule="nonzero"/><path fill="#17320b" d="M 293.601562 174.070312 C 290.980469 167.675781 288.410156 161.285156 285.886719 154.929688 C 290.042969 150.503906 295.597656 144.621094 299.875 140.320312 C 305.839844 141.449219 313.792969 142.945312 319.769531 144.007812 C 321.910156 149.417969 324.101562 154.855469 326.332031 160.296875 C 322.664062 164.949219 317.785156 171.167969 314.207031 175.886719 C 308.023438 175.386719 299.777344 174.695312 293.601562 174.070312 " fill-opacity="1" fill-rule="nonzero"/><path fill="#17320b" d="M 114.535156 247.367188 C 111.695312 240.429688 108.898438 233.496094 106.167969 226.597656 C 110.164062 220.972656 115.492188 213.472656 119.519531 207.867188 C 126.390625 208.597656 135.558594 209.578125 142.425781 210.359375 C 145.34375 217.730469 148.328125 225.140625 151.363281 232.550781 C 147.027344 238.089844 141.242188 245.472656 136.898438 251 C 130.191406 249.910156 121.242188 248.453125 114.535156 247.367188 " fill-opacity="1" fill-rule="nonzero"/><path fill="#17320b" d="M 48.339844 273.425781 C 46.371094 268.625 44.4375 263.820312 42.546875 259.046875 C 44.9375 254.773438 48.125 249.078125 50.5 244.796875 C 55.25 245.121094 61.574219 245.582031 66.3125 246.046875 C 68.632812 251.902344 71.003906 257.789062 73.414062 263.675781 C 70.453125 267.671875 66.492188 272.992188 63.445312 276.925781 C 58.921875 275.855469 52.882812 274.429688 48.339844 273.425781 " fill-opacity="1" fill-rule="nonzero"/><path fill="#17320b" d="M 27.523438 281.25 C 26.171875 277.949219 24.839844 274.652344 23.539062 271.367188 C 24.964844 268.105469 26.859375 263.757812 28.28125 260.496094 C 31.640625 260.53125 36.128906 260.632812 39.484375 260.859375 C 41.300781 265.449219 43.164062 270.066406 45.054688 274.679688 C 42.9375 277.59375 40.101562 281.472656 37.871094 284.304688 C 34.773438 283.367188 30.640625 282.121094 27.523438 281.25 " fill-opacity="1" fill-rule="nonzero"/><path fill="#17320b" d="M 16.601562 284.945312 C 15.953125 283.359375 15.3125 281.777344 14.691406 280.203125 C 14.992188 278.136719 15.425781 275.390625 15.832031 273.347656 C 17.59375 273.066406 19.96875 272.78125 21.753906 272.757812 C 22.96875 275.820312 24.214844 278.902344 25.476562 281.988281 C 24.320312 283.640625 22.777344 285.847656 21.5 287.40625 C 20.027344 286.671875 17.714844 286.152344 16.601562 284.945312 " fill-opacity="1" fill-rule="nonzero"/><path fill="#17320b" d="M 15.519531 285.761719 C 14.730469 283.832031 14.730469 283.832031 14.34375 282.855469 L 14.027344 282.050781 C 14.082031 281.777344 14.160156 281.417969 14.21875 281.144531 L 14.347656 281.074219 C 14.875 282.410156 15.414062 283.753906 15.964844 285.09375 C 15.859375 285.355469 15.839844 285.8125 15.597656 285.953125 L 15.519531 285.761719 " fill-opacity="1" fill-rule="nonzero"/><path fill="#17320b" d="M 393.769531 139.042969 C 393.199219 137.71875 392.628906 136.382812 392.0625 135.046875 C 393.019531 133.613281 394.292969 131.695312 395.378906 130.363281 L 396.941406 129.074219 L 396.738281 133.558594 C 396.015625 135.285156 394.949219 137.585938 393.769531 139.042969 " fill-opacity="1" fill-rule="nonzero"/><path fill="#17320b" d="M 380.035156 155.886719 C 378.71875 152.851562 377.414062 149.785156 376.121094 146.710938 C 378.082031 143.976562 380.710938 140.335938 382.800781 137.695312 C 385.136719 137.398438 388.265625 136.992188 390.539062 136.382812 C 391.203125 137.960938 391.875 139.535156 392.546875 141.097656 C 391.410156 144.265625 389.894531 148.496094 388.757812 151.667969 C 386.210938 153.0625 382.75 154.851562 380.035156 155.886719 " fill-opacity="1" fill-rule="nonzero"/><path fill="#17320b" d="M 356.738281 175.292969 C 354.769531 170.746094 352.8125 166.160156 350.882812 161.554688 C 353.695312 157.703125 357.464844 152.582031 360.390625 148.8125 C 364.257812 148.800781 369.417969 148.765625 373.273438 148.515625 C 374.65625 151.808594 376.050781 155.085938 377.464844 158.335938 C 375.351562 162.570312 372.554688 168.21875 370.480469 172.472656 C 366.382812 173.425781 360.894531 174.636719 356.738281 175.292969 " fill-opacity="1" fill-rule="nonzero"/><path fill="#17320b" d="M 150.402344 276.417969 C 147.3125 269.289062 144.246094 262.097656 141.21875 254.871094 C 145.597656 249.351562 151.4375 241.988281 155.808594 236.460938 C 163.210938 237.460938 173.089844 238.78125 180.503906 239.722656 C 183.65625 247.246094 186.847656 254.734375 190.066406 262.15625 C 185.453125 267.710938 179.300781 275.109375 174.636719 280.617188 C 167.363281 279.390625 157.660156 277.738281 150.402344 276.417969 " fill-opacity="1" fill-rule="nonzero"/><path fill="#17320b" d="M 108.960938 288.652344 C 106.179688 282.234375 103.421875 275.757812 100.695312 269.257812 C 104.484375 264.4375 109.53125 258.003906 113.269531 253.144531 C 119.945312 254.292969 128.84375 255.828125 135.519531 256.976562 C 138.519531 264.128906 141.554688 271.25 144.613281 278.304688 C 140.472656 283.046875 134.9375 289.359375 130.703125 294.019531 C 124.179688 292.421875 115.476562 290.292969 108.960938 288.652344 " fill-opacity="1" fill-rule="nonzero"/><path fill="#17320b" d="M 73.464844 296.171875 C 71.140625 290.816406 68.835938 285.414062 66.5625 279.984375 C 69.65625 276.082031 73.769531 270.867188 76.789062 266.898438 C 82.484375 268.085938 90.078125 269.679688 95.765625 270.898438 C 98.441406 277.277344 101.148438 283.632812 103.878906 289.925781 C 100.316406 293.660156 95.550781 298.632812 91.859375 302.242188 C 86.335938 300.429688 78.972656 298.011719 73.464844 296.171875 " fill-opacity="1" fill-rule="nonzero"/><path fill="#17320b" d="M 45.308594 298.769531 C 43.574219 294.769531 41.851562 290.734375 40.152344 286.679688 C 42.441406 283.886719 45.46875 280.140625 47.648438 277.265625 C 52.132812 278.402344 58.109375 279.929688 62.582031 281.117188 C 64.792969 286.371094 67.023438 291.613281 69.273438 296.804688 C 66.410156 299.371094 62.566406 302.78125 59.542969 305.15625 C 55.265625 303.25 48.585938 302.109375 45.308594 298.769531 " fill-opacity="1" fill-rule="nonzero"/><path fill="#17320b" d="M 25.902344 296.234375 C 24.855469 293.828125 23.820312 291.398438 22.800781 288.960938 C 24.152344 287.449219 25.921875 285.398438 27.148438 283.785156 C 30.199219 284.808594 34.261719 286.183594 37.300781 287.242188 C 38.917969 291.097656 40.550781 294.933594 42.199219 298.734375 C 40.15625 300.003906 37.402344 301.6875 35.191406 302.640625 C 32.382812 300.746094 28.019531 298.875 25.902344 296.234375 " fill-opacity="1" fill-rule="nonzero"/><path fill="#17320b" d="M 16.980469 289.210938 L 16.773438 288.726562 C 16.5 288.082031 16.132812 287.226562 15.859375 286.582031 C 16.117188 286.46875 16.429688 286.226562 16.589844 285.992188 C 17.976562 286.890625 19.832031 288.0625 21.246094 288.910156 C 22.171875 291.121094 23.109375 293.320312 24.054688 295.503906 C 22.882812 295.394531 21.261719 295.15625 20.242188 294.5625 C 19.222656 292.980469 17.761719 290.921875 16.980469 289.210938 " fill-opacity="1" fill-rule="nonzero"/><path fill="#17320b" d="M 397.519531 133.679688 C 397.355469 133.316406 397.183594 132.945312 397.015625 132.566406 L 396.941406 129.074219 L 397.519531 133.679688 " fill-opacity="1" fill-rule="nonzero"/><path fill="#17320b" d="M 393.363281 158.085938 C 392.40625 156.015625 391.449219 153.902344 390.496094 151.761719 C 391.484375 148.519531 392.796875 144.195312 393.761719 140.945312 C 394.835938 139.230469 396.210938 136.859375 396.804688 134.925781 C 397.078125 135.542969 397.355469 136.152344 397.628906 136.753906 C 397.648438 140.480469 397.628906 145.449219 397.488281 149.171875 C 396.421875 151.917969 394.90625 155.574219 393.363281 158.085938 " fill-opacity="1" fill-rule="nonzero"/><g clip-path="url(#369b867c6b)"><path fill="#17320b" d="M 42.125 314.890625 C 40.703125 311.800781 39.273438 308.652344 37.851562 305.460938 C 40.144531 304.457031 43.171875 303.03125 45.304688 301.722656 C 49.558594 303.789062 55.226562 306.535156 59.503906 308.546875 C 61.492188 313.015625 63.488281 317.421875 65.480469 321.742188 C 62.558594 322.691406 58.628906 323.914062 55.601562 324.441406 C 51.527344 321.617188 45.253906 318.730469 42.125 314.890625 " fill-opacity="1" fill-rule="nonzero"/></g><path fill="#17320b" d="M 23.609375 301.085938 C 22.925781 299.605469 22.242188 298.09375 21.558594 296.558594 C 22.800781 297.074219 24.542969 297.679688 25.882812 297.695312 C 28.628906 299.804688 32.308594 302.597656 35.128906 304.609375 C 36.457031 307.589844 37.789062 310.535156 39.121094 313.417969 C 36.925781 312.898438 33.988281 312.105469 31.964844 311.109375 C 29.394531 308.15625 25.628906 304.441406 23.609375 301.085938 " fill-opacity="1" fill-rule="nonzero"/><path fill="#17320b" d="M 18.1875 291.921875 C 17.925781 291.339844 17.578125 290.570312 17.320312 289.984375 C 18.164062 291.480469 19.203125 293.527344 20.167969 294.945312 C 20.746094 296.246094 21.328125 297.527344 21.910156 298.785156 L 19.324219 294.402344 C 18.980469 293.65625 18.519531 292.667969 18.1875 291.921875 " fill-opacity="1" fill-rule="nonzero"/><path fill="#17320b" d="M 399.730469 151.960938 C 399.199219 150.886719 398.644531 149.746094 398.070312 148.539062 L 398.058594 148.507812 C 398.03125 144.699219 397.980469 139.621094 397.765625 135.820312 L 396.941406 129.074219 L 399.097656 138.570312 C 399.449219 142.578125 399.863281 147.941406 399.730469 151.960938 " fill-opacity="1" fill-rule="nonzero"/><path fill="#17320b" d="M 399.132812 136.921875 C 399 136.679688 398.859375 136.417969 398.710938 136.128906 L 396.941406 129.074219 L 399.132812 136.921875 " fill-opacity="1" fill-rule="nonzero"/><g clip-path="url(#374952467e)"><path fill="#17320b" d="M 400.257812 138.714844 C 400.179688 138.617188 400.089844 138.496094 399.992188 138.359375 L 396.941406 129.074219 L 400.257812 138.714844 " fill-opacity="1" fill-rule="nonzero"/></g></svg>